<svg width="18" height="18" viewBox="0 0 20 20" fill="none" xmlns="http://www.w3.org/2000/svg">
<path fill-rule="evenodd" clip-rule="evenodd" d="M18 10C18 14.4183 14.4183 18 10 18C5.58172 18 2 14.4183 2 10C2 5.58172 5.58172 2 10 2C14.4183 2 18 5.58172 18 10ZM20 10C20 15.5228 15.5228 20 10 20C4.47715 20 0 15.5228 0 10C0 4.47715 4.47715 0 10 0C15.5228 0 20 4.47715 20 10ZM13 8C13 8.55228 12.5523 9 12 9C11.4477 9 11 8.55228 11 8C11 7.44772 11.4477 7 12 7C12.5523 7 13 7.44772 13 8ZM15 8C15 9.65685 13.6569 11 12 11C11.5369 11 11.0982 10.895 10.7066 10.7076L9.41421 12L9.70711 12.2929C10.0976 12.6834 10.0976 13.3166 9.70711 13.7071C9.31658 14.0976 8.68342 14.0976 8.29289 13.7071L8 13.4142L7.70711 13.7071C7.31658 14.0976 6.68342 14.0976 6.29289 13.7071C5.90237 13.3166 5.90237 12.6834 6.29289 12.2929L7.29289 11.2929L9.29237 9.29342C9.10495 8.90178 9 8.46315 9 8C9 6.34315 10.3431 5 12 5C13.6569 5 15 6.34315 15 8Z" fill="#909EBB"/>
</svg>
